<?xml version="1.0" encoding="UTF-8"?><svg id="Layer_1" xmlns="http://www.w3.org/2000/svg" width="177.6mm" height="287.55mm" viewBox="0 0 503.42 815.09"><defs><style>.cls-1{stroke-width:0px;}</style></defs><path class="cls-1" d="m160.77,381.91v-161.91c0-5.09-2.02-9.96-5.62-13.56l-42.42-42.42c-.95,3.66-1.76,7.37-2.43,11.13l40.88,40.88v165.88h9.59Z"/><path class="cls-1" d="m171.18,186.11c-3.6,3.6-5.62,8.47-5.62,13.56v5.62l35.3-35.3-6.78-6.78-22.9,22.9Z"/><path class="cls-1" d="m160.77,199.67c0-5.09-2.02-9.96-5.62-13.56l-37.47-37.47c-1.28,3.31-2.43,6.67-3.46,10.09l46.55,46.55v-5.62Z"/><path class="cls-1" d="m171.18,165.77c-3.6,3.6-5.62,8.47-5.62,13.56v5.62l25.13-25.13-6.78-6.78-12.74,12.74Z"/><path class="cls-1" d="m160.77,179.33c0-5.09-2.02-9.96-5.62-13.56l-31.17-31.17c-1.55,3.01-3,6.09-4.34,9.22l41.12,41.12v-5.62Z"/><path class="cls-1" d="m171.18,206.45c-3.6,3.6-5.62,8.47-5.62,13.56v161.91h9.59v-165.88l35.88-35.88-6.78-6.78-33.07,33.07Z"/><path class="cls-1" d="m172.45,80.55c-2.7,1.79-5.34,3.68-7.91,5.64l78,78,6.78,6.78v-5.62c0-2.32-.42-4.59-1.22-6.72-.95-2.54-2.44-4.88-4.39-6.84l-71.25-71.25Zm62.32,62.32l6.78,6.78-6.78-6.78Z"/><path class="cls-1" d="m150.08,98.86c-2.26,2.26-4.44,4.6-6.54,7.01l78.67,78.67,17.53,17.53v179.85h9.59v-175.88c0-5.09-2.02-9.96-5.62-13.56l-14.72-14.72-78.9-78.9Z"/><path class="cls-1" d="m259.72,172.14c-3.6,3.6-5.62,8.47-5.62,13.56v5.62l21.33-21.33-6.78-6.78-8.94,8.94Z"/><path class="cls-1" d="m349.9,95.53c-2.34-2.19-4.74-4.31-7.22-6.34l-40.12,40.12,6.78,6.78,40.56-40.56Z"/><path class="cls-1" d="m160.75,89.19c-2.48,2.03-4.88,4.15-7.22,6.34l78.84,78.84,16.95,16.95v-5.62c0-5.09-2.02-9.96-5.62-13.56l-4.55-4.55-78.4-78.4Z"/><path class="cls-1" d="m254.11,165.36v5.62l11.16-11.16-6.72-6.72c-2.86,3.43-4.44,7.77-4.44,12.27Z"/><path class="cls-1" d="m338.89,86.2c-2.57-1.97-5.21-3.85-7.91-5.64l-38.59,38.59,6.78,6.78,39.72-39.72Z"/><path class="cls-1" d="m359.89,105.87c-2.1-2.41-4.29-4.75-6.54-7.01l-40.62,40.62,6.78,6.78,40.39-40.39Z"/><path class="cls-1" d="m259.72,192.48c-3.6,3.6-5.62,8.47-5.62,13.56v175.88h9.59v-179.85h0s21.91-21.91,21.91-21.91l-6.78-6.78-19.1,19.1Z"/><path class="cls-1" d="m225.55,59.09c-3.74.69-7.43,1.52-11.06,2.5l27.05,27.05,6.78-6.78-22.77-22.77Z"/><path class="cls-1" d="m282.22,115.75l-6.78,6.78,55.64,55.64,6.78,6.78v-5.62c0-2.32-.42-4.59-1.22-6.72-.95-2.54-2.44-4.88-4.39-6.84l-50.02-50.02Z"/><path class="cls-1" d="m194.4,68.61c-3.12,1.36-6.17,2.82-9.17,4.39l35.97,35.97,6.78-6.78-33.58-33.58Z"/><path class="cls-1" d="m328.27,381.91h9.59v-161.91c0-5.09-2.02-9.96-5.62-13.56l-14.72-14.72-55.64-55.64-6.78,6.78,55.64,55.64,17.53,17.53v165.88Z"/><path class="cls-1" d="m342.65,199.67v5.62l46.55-46.55c-1.03-3.42-2.19-6.79-3.46-10.09l-37.47,37.47c-3.6,3.6-5.62,8.47-5.62,13.56Z"/><path class="cls-1" d="m209.22,63.09c-3.4,1.05-6.75,2.23-10.04,3.52l32.19,32.19,6.78-6.78-28.93-28.93Z"/><path class="cls-1" d="m272.05,125.92l-6.78,6.78,55.64,55.64,16.95,16.95v-5.62c0-5.09-2.02-9.96-5.62-13.56l-4.55-4.55-55.64-55.64Z"/><path class="cls-1" d="m348.27,165.77c-3.6,3.6-5.62,8.47-5.62,13.56v5.62l41.12-41.12c-1.34-3.13-2.79-6.21-4.34-9.22l-31.17,31.17Z"/><path class="cls-1" d="m390.69,164.02l-42.42,42.42c-3.6,3.6-5.62,8.47-5.62,13.56v161.91h9.59v-165.88l40.88-40.88c-.66-3.76-1.48-7.47-2.43-11.13Z"/><path class="cls-1" d="m238.15,139.48l6.78,6.78,73.26-73.26c-3-1.57-6.05-3.03-9.17-4.39l-70.87,70.87Z"/><line class="cls-1" x1="234.76" y1="142.87" x2="241.54" y2="149.65"/><path class="cls-1" d="m227.98,129.31l6.78,6.78,69.47-69.47c-3.29-1.29-6.64-2.47-10.04-3.52l-66.21,66.21Z"/><path class="cls-1" d="m217.81,119.14l6.78,6.78,64.34-64.34c-3.63-.97-7.32-1.81-11.06-2.5l-60.05,60.05Z"/><path class="cls-1" d="m130.58,481.13l.08-5.91v-46.09l-.08-5.91h14.01c10.69,0,16.04,5.75,16.04,14.66v.08c0,6.24-2.43,10.12-6.8,12.64v.32c4.94,2.27,8.1,6.48,8.1,12.96v.16c0,11.18-6.07,17.09-17.09,17.09h-14.25Zm10.37-34.75h2.67c4.62,0,6.64-3.16,6.64-7.53v-.16c0-4.13-2.11-6.4-6.48-6.4h-2.83v14.09Zm3,25.67c5.51,0,7.21-3,7.21-8.5v-.16c0-5.1-2.19-7.94-7.37-7.94h-2.83v16.6h3Z"/><path class="cls-1" d="m176.67,469.63c0,2.27,0,3.81,2.19,3.81,1.94,0,3.56-1.21,5.26-2.35v-26.97l-.08-5.91h9.48l-.08,5.91v31.1l.08,5.91h-8.91v-4.86h-.08c-3.89,3.56-6.72,5.51-10.29,5.51-4.37,0-6.88-3-6.88-8.34v-29.32l-.08-5.91h9.48l-.08,5.91v25.51Z"/><path class="cls-1" d="m220.4,437.71v10.29c-.89-.16-1.86-.24-2.83-.24-4.62,0-7.21,1.86-7.21,6.72v20.73l.08,5.91h-9.48l.08-5.91v-31.26l-.08-5.75h8.75v6.16h.4c2.59-4.21,6.08-6.8,8.99-6.8.49,0,.97.08,1.3.16Z"/><path class="cls-1" d="m240.82,449.7c0-2.27,0-3.81-2.19-3.81-1.94,0-3.56,1.21-5.26,2.35v26.97l.08,5.91h-9.48l.08-5.91v-31.1l-.08-5.91h8.91v4.86h.08c3.89-3.56,6.72-5.51,10.29-5.51,4.37,0,6.88,3,6.88,8.34v29.32l.08,5.91h-9.48l.08-5.91v-25.51Z"/><path class="cls-1" d="m263.5,467.2c.89,4.78,3.16,6.8,5.83,6.8,2.51,0,3.64-1.62,3.64-3.56,0-2.92-2.35-4.78-5.99-7.05l-3.97-2.27c-4.86-3-7.29-7.05-7.29-12.23,0-5.59,4.45-11.5,12.96-11.5,7.53,0,11.74,4.05,13.12,11.01l-8.59,1.78c-.65-2.59-1.86-4.86-4.62-4.86-2.27,0-3.81,1.38-3.81,3.32,0,2.27,1.54,3.64,4.94,5.83l3.97,2.27c4.86,2.92,8.58,7.29,8.58,13.12,0,7.05-4.7,12.15-13.28,12.15-6.4,0-12.72-3.89-14.26-13.04l8.75-1.78Z"/><path class="cls-1" d="m296.95,438.2l-.08,5.91v31.1l.08,5.91h-9.48l.08-5.91v-31.1l-.08-5.91h9.48Zm-9.39-14.98h9.31v8.1h-9.31v-8.1Z"/><path class="cls-1" d="m329.99,423.22l-.08,5.91v46.09l.08,5.91h-8.91v-3.48h-.41c-3.72,2.92-5.91,4.13-8.91,4.13-8.34,0-8.34-8.75-8.34-16.28v-10.37c0-7.29,0-17.58,8.75-17.58,2.92,0,5.1,1.13,8.42,3.73v-12.15l-.08-5.91h9.48Zm-17.25,30.13v13.53c0,2.92.16,6.97,3.64,6.97,1.54,0,2.83-.73,4.21-1.46v-25.92c-1.54-.65-2.67-.97-3.73-.97-4.13,0-4.13,5.26-4.13,7.86Z"/><path class="cls-1" d="m345.63,461.53v2.75c0,6.16,0,9.56,3.97,9.56s4.05-4.46,4.05-7.45v-.16h9.07v.16c0,5.26-1.21,9.96-4.37,12.8-1.94,1.78-4.7,2.75-8.91,2.75-4.54,0-7.05-1.13-8.83-2.75-3.56-3.24-4.29-8.75-4.29-16.69v-5.67c0-7.86.73-13.36,4.29-16.6,2.11-1.94,4.94-2.83,8.91-2.83,4.21,0,6.8.97,8.83,2.83,3.56,3.24,4.37,8.58,4.37,16.6v4.7h-17.09Zm0-6.88h7.78v-.24c0-5.02,0-8.91-3.97-8.91s-3.81,3.73-3.81,8.91v.24Z"/><path class="cls-1" d="m128.51,508.22l-.08,5.91v46.09l.08,5.91h-10.37l.08-5.91v-19.68h-10.04v19.68l.08,5.91h-10.45l.08-5.91v-46.09l-.08-5.91h10.45l-.08,5.91v17.17h10.04v-17.17l-.08-5.91h10.37Z"/><path class="cls-1" d="m145.76,523.2l-.08,5.91v31.1l.08,5.91h-9.48l.08-5.91v-31.1l-.08-5.91h9.48Zm-9.4-14.98h9.31v8.1h-9.31v-8.1Z"/><path class="cls-1" d="m163.26,554.95c-1.13.81-2.11,1.94-2.11,2.75,0,1.05,1.46,1.46,3.64,1.54l6.72.32c6.96.32,11.91,3.24,11.91,9.15,0,7.05-7.21,11.34-18.22,11.34-7.37,0-14.25-1.94-14.25-6.8,0-3.08,2.75-5.43,6.88-6.72v-.32c-3.08-1.05-4.94-2.43-4.94-5.1s2.02-5.91,4.94-7.94v-.32c-3.64-2.35-5.18-6.88-5.18-12.88v-2.43c0-5.59,1.46-9.64,4.29-12.23,2.19-2.03,4.94-2.92,8.34-2.92,5.02,0,8.1,1.94,9.88,4.45h.4c1.94-3.97,5.43-4.78,7.53-4.13v9.72c-2.43-.24-4.13-.32-5.27.49.41,1.62.49,3.32.49,4.94v2.11c0,6.08-1.62,9.96-4.05,12.23-2.35,2.19-5.51,2.92-8.67,2.92-.89,0-1.7,0-2.35-.16Zm6.96,12.88l-6.72-.32c-2.43,1.21-3.48,2.11-3.48,3.24,0,1.62,2.35,2.43,7.05,2.43,5.99,0,7.86-1.3,7.86-2.92s-1.54-2.27-4.7-2.43Zm-8.67-27.38c0,3.32,0,6.8,4.05,6.8,3.81,0,3.81-3.48,3.81-6.8v-3.48c0-3.24,0-6.72-3.81-6.72-4.05,0-4.05,3.48-4.05,6.8v3.4Z"/><path class="cls-1" d="m188.13,508.22h9.48l-.08,5.91v13.69h.08c3.48-3.24,6.16-5.26,9.8-5.26,4.45,0,6.88,3.08,6.88,8.34v29.32l.08,5.91h-9.48l.08-5.91v-25.51c0-2.43,0-3.81-2.19-3.81-2.02,0-3.56,1.21-5.26,2.35v26.97l.08,5.91h-9.48l.08-5.91v-46.09l-.08-5.91Z"/><path class="cls-1" d="m241.1,550.09c.97,5.35,3.4,7.37,6.88,7.37s5.34-2.03,5.34-5.02c0-3.24-2.11-6.32-6.72-9.72l-5.35-3.89c-6.4-4.7-9.15-10.21-9.15-16.28,0-8.99,6.16-15.31,15.71-15.31,8.83,0,13.93,5.35,15.23,14.42l-10.12,1.38c-.57-3.89-2.19-6.16-5.43-6.16s-4.86,2.19-4.86,5.18c0,3.64,2.59,6.24,6.8,9.31l5.26,3.81c6.08,4.45,9.15,10.12,9.15,16.68,0,9.31-6.24,15.23-15.96,15.23s-15.47-5.83-16.85-15.63l10.04-1.38Z"/><path class="cls-1" d="m294.31,549.44v.16c0,6.4-.97,11.58-4.21,14.5-2.02,1.86-4.94,2.83-8.99,2.83-4.46,0-7.13-1.21-8.83-2.75-3.73-3.32-4.29-9.8-4.29-16.69v-5.67c0-6.88.57-13.36,4.29-16.68,1.7-1.54,4.37-2.75,8.83-2.75,4.05,0,6.97.97,8.99,2.83,3.08,2.83,3.97,7.53,3.97,13.61v.16h-8.91v-.16c0-4.46,0-8.34-3.97-8.34s-3.89,3.73-3.89,9.56v9.23c0,5.67,0,9.56,3.89,9.56s4.05-4.21,4.05-9.23v-.16h9.07Z"/><path class="cls-1" d="m300.15,508.22h9.48l-.08,5.91v13.69h.08c3.48-3.24,6.16-5.26,9.8-5.26,4.46,0,6.88,3.08,6.88,8.34v29.32l.08,5.91h-9.48l.08-5.91v-25.51c0-2.43,0-3.81-2.19-3.81-2.02,0-3.56,1.21-5.26,2.35v26.97l.08,5.91h-9.48l.08-5.91v-46.09l-.08-5.91Z"/><path class="cls-1" d="m336.68,564.1c-3.56-3.24-4.29-8.67-4.29-16.6v-5.67c0-7.94.73-13.36,4.29-16.6,2.11-1.86,4.78-2.83,8.91-2.83s6.8.97,8.83,2.83c3.56,3.24,4.37,8.67,4.37,16.6v5.67c0,7.94-.89,13.28-4.37,16.6-2.02,1.94-4.78,2.83-8.83,2.83s-6.8-.89-8.91-2.83Zm12.8-14.82v-9.23c0-5.91,0-9.56-3.89-9.56s-3.89,3.64-3.89,9.56v9.23c0,5.91,0,9.56,3.89,9.56s3.89-3.65,3.89-9.56Z"/><path class="cls-1" d="m368.27,564.1c-3.56-3.24-4.29-8.67-4.29-16.6v-5.67c0-7.94.73-13.36,4.29-16.6,2.11-1.86,4.78-2.83,8.91-2.83s6.8.97,8.83,2.83c3.56,3.24,4.37,8.67,4.37,16.6v5.67c0,7.94-.89,13.28-4.37,16.6-2.02,1.94-4.78,2.83-8.83,2.83s-6.8-.89-8.91-2.83Zm12.8-14.82v-9.23c0-5.91,0-9.56-3.89-9.56s-3.89,3.64-3.89,9.56v9.23c0,5.91,0,9.56,3.89,9.56s3.89-3.65,3.89-9.56Z"/><path class="cls-1" d="m406.17,508.22l-.08,5.91v46.09l.08,5.91h-9.48l.08-5.91v-46.09l-.08-5.91h9.48Z"/><path class="cls-1" d="m147.87,602.29v42.93l.08,5.91h-10.37l.08-5.91v-42.93h-10.21v-9.07h30.7v9.07h-10.29Z"/><path class="cls-1" d="m165.29,631.53v2.75c0,6.16,0,9.56,3.97,9.56s4.05-4.46,4.05-7.45v-.16h9.07v.16c0,5.26-1.21,9.96-4.37,12.8-1.94,1.78-4.7,2.75-8.91,2.75-4.54,0-7.05-1.13-8.83-2.75-3.56-3.24-4.29-8.75-4.29-16.69v-5.67c0-7.86.73-13.36,4.29-16.6,2.11-1.94,4.94-2.83,8.91-2.83,4.21,0,6.8.97,8.83,2.83,3.56,3.24,4.37,8.58,4.37,16.6v4.7h-17.09Zm0-6.88h7.78v-.24c0-5.02,0-8.91-3.97-8.91s-3.81,3.73-3.81,8.91v.24Z"/><path class="cls-1" d="m233.24,593.22l-11.1,21.62,11.74,36.29h-11.1l-8.02-25.92-3.81,7.37v12.64l.08,5.91h-10.45l.08-5.91v-46.09l-.08-5.91h10.45l-.08,5.91v9.8c0,1.94-.08,4.78-.16,6.56h.32c.97-1.78,2.11-4.13,3.08-5.99l7.86-16.28h11.18Z"/><path class="cls-1" d="m246.93,639.63c0,2.27,0,3.81,2.19,3.81,1.94,0,3.56-1.21,5.26-2.35v-26.97l-.08-5.91h9.48l-.08,5.91v31.1l.08,5.91h-8.91v-4.86h-.08c-3.89,3.56-6.72,5.51-10.29,5.51-4.37,0-6.88-3-6.88-8.34v-29.32l-.08-5.91h9.48l-.08,5.91v25.51Z"/><path class="cls-1" d="m290.43,607.71v10.29c-.89-.16-1.86-.24-2.83-.24-4.62,0-7.21,1.86-7.21,6.72v20.73l.08,5.91h-9.48l.08-5.91v-31.26l-.08-5.75h8.75v6.16h.4c2.59-4.21,6.07-6.8,8.99-6.8.49,0,.97.08,1.3.16Z"/><path class="cls-1" d="m306.14,607.39c9.8,0,12.55,6.07,12.55,13.61v24.22c0,1.86.32,4.37.57,5.91h-9.23c-.24-1.3-.32-2.02-.49-4.29h-.4c-3.56,3.16-6.16,4.78-10.12,4.78-4.62,0-8.02-3.89-8.02-9.88,0-6.88,2.75-11.74,11.34-15.79,2.59-1.21,5.35-2.27,7.05-2.92v-2.92c0-2.35-.65-4.94-3.56-4.94-3.16,0-3.89,2.83-4.05,5.99h-9.4c.49-8.34,4.7-13.77,13.77-13.77Zm3.24,32.72v-11.01c-4.21,2.02-8.58,4.54-8.58,10.12,0,2.51,1.05,3.81,3.08,3.81,1.54,0,3.4-.73,5.51-2.92Z"/><path class="cls-1" d="m340.49,649.1c-3.56-3.24-4.29-8.67-4.29-16.6v-5.67c0-7.94.73-13.36,4.29-16.6,2.11-1.86,4.78-2.83,8.91-2.83s6.8.97,8.83,2.83c3.56,3.24,4.37,8.67,4.37,16.6v5.67c0,7.94-.89,13.28-4.37,16.6-2.03,1.94-4.78,2.83-8.83,2.83s-6.8-.89-8.91-2.83Zm12.8-14.82v-9.23c0-5.91,0-9.56-3.89-9.56s-3.89,3.64-3.89,9.56v9.23c0,5.91,0,9.56,3.89,9.56s3.89-3.65,3.89-9.56Z"/><path class="cls-1" d="m94.9,678.22h10.04l3.89,28.59c.32,2.35.57,5.18.65,7.45h.32c.16-2.27.41-5.1.81-7.45l4.54-28.59h8.91l4.62,28.59c.41,2.35.57,5.18.73,7.45h.32c.08-2.27.32-5.1.65-7.45l3.97-28.59h9.88l-9.15,57.91h-9.96l-4.7-26.57c-.41-2.35-.57-5.18-.73-7.45h-.32c-.08,2.27-.24,5.1-.65,7.45l-4.78,26.57h-9.96l-9.07-57.91Z"/><path class="cls-1" d="m159.78,692.39c9.8,0,12.55,6.07,12.55,13.61v24.22c0,1.86.32,4.37.57,5.91h-9.23c-.24-1.3-.32-2.02-.49-4.29h-.4c-3.56,3.16-6.16,4.78-10.12,4.78-4.62,0-8.02-3.89-8.02-9.88,0-6.88,2.75-11.74,11.34-15.79,2.59-1.21,5.35-2.27,7.05-2.92v-2.92c0-2.35-.65-4.94-3.56-4.94-3.16,0-3.89,2.83-4.05,5.99h-9.39c.49-8.34,4.7-13.77,13.77-13.77Zm3.24,32.72v-11.01c-4.21,2.02-8.58,4.54-8.58,10.12,0,2.51,1.05,3.81,3.08,3.81,1.54,0,3.4-.73,5.51-2.92Z"/><path class="cls-1" d="m188.69,693.2l-.08,5.91v31.1l.08,5.91h-9.48l.08-5.91v-31.1l-.08-5.91h9.48Zm-9.4-14.98h9.31v8.1h-9.31v-8.1Z"/><path class="cls-1" d="m205.3,730.21l.08,5.91h-9.48l.08-5.91v-31.1l-.08-5.91h8.91v4.86h.08c3.97-3.64,6.8-5.51,10.21-5.51,3.16,0,5.51,1.54,6.56,5.43h.08c3.56-3.16,6.4-5.43,10.37-5.43,5.02,0,6.72,3.73,6.72,9.96v27.7l.08,5.91h-9.48l.08-5.91v-25.51c0-2.19,0-3.81-2.27-3.81-1.86,0-3.56,1.21-5.18,2.35v26.97l.08,5.91h-9.48l.08-5.91v-25.51c0-2.19,0-3.81-2.27-3.81-1.86,0-3.48,1.21-5.18,2.35v26.97Z"/><path class="cls-1" d="m258.68,692.39c9.8,0,12.55,6.07,12.55,13.61v24.22c0,1.86.32,4.37.57,5.91h-9.23c-.24-1.3-.32-2.02-.49-4.29h-.41c-3.56,3.16-6.15,4.78-10.12,4.78-4.62,0-8.02-3.89-8.02-9.88,0-6.88,2.75-11.74,11.34-15.79,2.59-1.21,5.35-2.27,7.05-2.92v-2.92c0-2.35-.65-4.94-3.56-4.94-3.16,0-3.89,2.83-4.05,5.99h-9.4c.49-8.34,4.7-13.77,13.77-13.77Zm3.24,32.72v-11.01c-4.21,2.02-8.59,4.54-8.59,10.12,0,2.51,1.05,3.81,3.08,3.81,1.54,0,3.4-.73,5.51-2.92Z"/><path class="cls-1" d="m287.59,693.2l-.08,5.91v31.1l.08,5.91h-9.48l.08-5.91v-31.1l-.08-5.91h9.48Zm-9.4-14.98h9.31v8.1h-9.31v-8.1Z"/><path class="cls-1" d="m314.24,692.71v10.29c-.89-.16-1.86-.24-2.83-.24-4.62,0-7.21,1.86-7.21,6.72v20.73l.08,5.91h-9.48l.08-5.91v-31.26l-.08-5.75h8.75v6.16h.41c2.59-4.21,6.08-6.8,8.99-6.8.49,0,.97.08,1.29.16Z"/><path class="cls-1" d="m327.04,693.2l-.08,5.91v31.1l.08,5.91h-9.48l.08-5.91v-31.1l-.08-5.91h9.48Zm-9.4-14.98h9.31v8.1h-9.31v-8.1Z"/><path class="cls-1" d="m334.01,707.13h15.79v9.56h-15.79v-9.56Z"/><path class="cls-1" d="m366.24,693.2l-.08,5.91v31.1l.08,5.91h-9.48l.08-5.91v-31.1l-.08-5.91h9.48Zm-9.39-14.98h9.31v8.1h-9.31v-8.1Z"/><path class="cls-1" d="m392.89,692.71v10.29c-.89-.16-1.86-.24-2.83-.24-4.62,0-7.21,1.86-7.21,6.72v20.73l.08,5.91h-9.48l.08-5.91v-31.26l-.08-5.75h8.75v6.16h.41c2.59-4.21,6.07-6.8,8.99-6.8.49,0,.97.08,1.3.16Z"/><path class="cls-1" d="m405.69,693.2l-.08,5.91v31.1l.08,5.91h-9.48l.08-5.91v-31.1l-.08-5.91h9.48Zm-9.4-14.98h9.31v8.1h-9.31v-8.1Z"/></svg>