<?xml version="1.0" encoding="utf-8"?>
<!-- Generator: Adobe Illustrator 28.1.0, SVG Export Plug-In . SVG Version: 6.00 Build 0)  -->
<svg version="1.1" id="Layer_1" xmlns="http://www.w3.org/2000/svg" xmlns:xlink="http://www.w3.org/1999/xlink" x="0px" y="0px"
	 viewBox="0 0 767.4 455.8" style="enable-background:new 0 0 767.4 455.8;" xml:space="preserve">
<style type="text/css">
	.st0{fill:#FFFFFF;}
	.st1{fill:#004E42;}
</style>
<g>
	<g>
		<path d="M388.3,297.3l0.1-5.9v-46.1l-0.1-5.9h14c10.7,0,16,5.8,16,14.7v0.1c0,6.2-2.4,10.1-6.8,12.6v0.3c4.9,2.3,8.1,6.5,8.1,13
			v0.2c0,11.2-6.1,17.1-17.1,17.1H388.3z M398.7,262.6h2.7c4.6,0,6.6-3.2,6.6-7.5v-0.2c0-4.1-2.1-6.4-6.5-6.4h-2.8V262.6z
			 M401.7,288.2c5.5,0,7.2-3,7.2-8.5v-0.2c0-5.1-2.2-7.9-7.4-7.9h-2.8v16.6H401.7z"/>
		<path d="M434.4,285.8c0,2.3,0,3.8,2.2,3.8c1.9,0,3.6-1.2,5.3-2.3v-27l-0.1-5.9h9.5l-0.1,5.9v31.1l0.1,5.9h-8.9v-4.9h-0.1
			c-3.9,3.6-6.7,5.5-10.3,5.5c-4.4,0-6.9-3-6.9-8.3v-29.3l-0.1-5.9h9.5l-0.1,5.9V285.8z"/>
		<path d="M478.1,253.9v10.3c-0.9-0.2-1.9-0.2-2.8-0.2c-4.6,0-7.2,1.9-7.2,6.7v20.7l0.1,5.9h-9.5l0.1-5.9v-31.3l-0.1-5.8h8.7v6.2
			h0.4c2.6-4.2,6.1-6.8,9-6.8C477.3,253.7,477.8,253.8,478.1,253.9z"/>
		<path d="M498.5,265.9c0-2.3,0-3.8-2.2-3.8c-1.9,0-3.6,1.2-5.3,2.3v27l0.1,5.9h-9.5l0.1-5.9v-31.1l-0.1-5.9h8.9v4.9h0.1
			c3.9-3.6,6.7-5.5,10.3-5.5c4.4,0,6.9,3,6.9,8.3v29.3l0.1,5.9h-9.5l0.1-5.9V265.9z"/>
		<path d="M521.2,283.4c0.9,4.8,3.2,6.8,5.8,6.8c2.5,0,3.6-1.6,3.6-3.6c0-2.9-2.3-4.8-6-7l-4-2.3c-4.9-3-7.3-7-7.3-12.2
			c0-5.6,4.5-11.5,13-11.5c7.5,0,11.7,4,13.1,11l-8.6,1.8c-0.6-2.6-1.9-4.9-4.6-4.9c-2.3,0-3.8,1.4-3.8,3.3c0,2.3,1.5,3.6,4.9,5.8
			l4,2.3c4.9,2.9,8.6,7.3,8.6,13.1c0,7-4.7,12.1-13.3,12.1c-6.4,0-12.7-3.9-14.3-13L521.2,283.4z"/>
		<path d="M554.7,254.4l-0.1,5.9v31.1l0.1,5.9h-9.5l0.1-5.9v-31.1l-0.1-5.9H554.7z M545.3,239.4h9.3v8.1h-9.3V239.4z"/>
		<path d="M587.7,239.4l-0.1,5.9v46.1l0.1,5.9h-8.9v-3.5h-0.4c-3.7,2.9-5.9,4.1-8.9,4.1c-8.3,0-8.3-8.7-8.3-16.3v-10.4
			c0-7.3,0-17.6,8.7-17.6c2.9,0,5.1,1.1,8.4,3.7v-12.1l-0.1-5.9H587.7z M570.5,269.5V283c0,2.9,0.2,7,3.6,7c1.5,0,2.8-0.7,4.2-1.5
			v-25.9c-1.5-0.6-2.7-1-3.7-1C570.5,261.7,570.5,266.9,570.5,269.5z"/>
		<path d="M603.3,277.7v2.8c0,6.2,0,9.6,4,9.6c4,0,4-4.5,4-7.5v-0.2h9.1v0.2c0,5.3-1.2,10-4.4,12.8c-1.9,1.8-4.7,2.8-8.9,2.8
			c-4.5,0-7-1.1-8.8-2.8c-3.6-3.2-4.3-8.7-4.3-16.7V273c0-7.9,0.7-13.4,4.3-16.6c2.1-1.9,4.9-2.8,8.9-2.8c4.2,0,6.8,1,8.8,2.8
			c3.6,3.2,4.4,8.6,4.4,16.6v4.7H603.3z M603.3,270.8h7.8v-0.2c0-5,0-8.9-4-8.9c-3.8,0-3.8,3.7-3.8,8.9V270.8z"/>
		<path d="M419,324.4l-0.1,5.9v46.1l0.1,5.9h-10.4l0.1-5.9v-19.7h-10v19.7l0.1,5.9h-10.4l0.1-5.9v-46.1l-0.1-5.9h10.4l-0.1,5.9v17.2
			h10v-17.2l-0.1-5.9H419z"/>
		<path d="M436.2,339.4l-0.1,5.9v31.1l0.1,5.9h-9.5l0.1-5.9v-31.1l-0.1-5.9H436.2z M426.9,324.4h9.3v8.1h-9.3V324.4z"/>
		<path d="M453.7,371.1c-1.1,0.8-2.1,1.9-2.1,2.8c0,1.1,1.5,1.5,3.6,1.5l6.7,0.3c7,0.3,11.9,3.2,11.9,9.2c0,7-7.2,11.3-18.2,11.3
			c-7.4,0-14.3-1.9-14.3-6.8c0-3.1,2.8-5.4,6.9-6.7v-0.3c-3.1-1.1-4.9-2.4-4.9-5.1s2-5.9,4.9-7.9V369c-3.6-2.3-5.2-6.9-5.2-12.9
			v-2.4c0-5.6,1.5-9.6,4.3-12.2c2.2-2,4.9-2.9,8.3-2.9c5,0,8.1,1.9,9.9,4.5h0.4c1.9-4,5.4-4.8,7.5-4.1v9.7c-2.4-0.2-4.1-0.3-5.3,0.5
			c0.4,1.6,0.5,3.3,0.5,4.9v2.1c0,6.1-1.6,10-4,12.2c-2.3,2.2-5.5,2.9-8.7,2.9C455.2,371.3,454.4,371.3,453.7,371.1z M460.7,384
			l-6.7-0.3c-2.4,1.2-3.5,2.1-3.5,3.2c0,1.6,2.3,2.4,7,2.4c6,0,7.9-1.3,7.9-2.9C465.4,384.9,463.9,384.2,460.7,384z M452,356.6
			c0,3.3,0,6.8,4,6.8c3.8,0,3.8-3.5,3.8-6.8v-3.5c0-3.2,0-6.7-3.8-6.7c-4,0-4,3.5-4,6.8V356.6z"/>
		<path d="M478.6,324.4h9.5l-0.1,5.9V344h0.1c3.5-3.2,6.2-5.3,9.8-5.3c4.5,0,6.9,3.1,6.9,8.3v29.3l0.1,5.9h-9.5l0.1-5.9v-25.5
			c0-2.4,0-3.8-2.2-3.8c-2,0-3.6,1.2-5.3,2.3v27l0.1,5.9h-9.5l0.1-5.9v-46.1L478.6,324.4z"/>
		<path d="M531.6,366.3c1,5.3,3.4,7.4,6.9,7.4s5.3-2,5.3-5c0-3.2-2.1-6.3-6.7-9.7l-5.3-3.9c-6.4-4.7-9.2-10.2-9.2-16.3
			c0-9,6.2-15.3,15.7-15.3c8.8,0,13.9,5.3,15.2,14.4l-10.1,1.4c-0.6-3.9-2.2-6.2-5.4-6.2c-3.1,0-4.9,2.2-4.9,5.2
			c0,3.6,2.6,6.2,6.8,9.3l5.3,3.8c6.1,4.5,9.2,10.1,9.2,16.7c0,9.3-6.2,15.2-16,15.2c-9.6,0-15.5-5.8-16.8-15.6L531.6,366.3z"/>
		<path d="M584.8,365.6v0.2c0,6.4-1,11.6-4.2,14.5c-2,1.9-4.9,2.8-9,2.8c-4.5,0-7.1-1.2-8.8-2.8c-3.7-3.3-4.3-9.8-4.3-16.7V358
			c0-6.9,0.6-13.4,4.3-16.7c1.7-1.5,4.4-2.8,8.8-2.8c4,0,7,1,9,2.8c3.1,2.8,4,7.5,4,13.6v0.2h-8.9V355c0-4.5,0-8.3-4-8.3
			c-3.9,0-3.9,3.7-3.9,9.6v9.2c0,5.7,0,9.6,3.9,9.6c4,0,4-4.2,4-9.2v-0.2H584.8z"/>
		<path d="M590.6,324.4h9.5l-0.1,5.9V344h0.1c3.5-3.2,6.2-5.3,9.8-5.3c4.5,0,6.9,3.1,6.9,8.3v29.3l0.1,5.9h-9.5l0.1-5.9v-25.5
			c0-2.4,0-3.8-2.2-3.8c-2,0-3.6,1.2-5.3,2.3v27l0.1,5.9h-9.5l0.1-5.9v-46.1L590.6,324.4z"/>
		<path d="M627.2,380.3c-3.6-3.2-4.3-8.7-4.3-16.6V358c0-7.9,0.7-13.4,4.3-16.6c2.1-1.9,4.8-2.8,8.9-2.8c4,0,6.8,1,8.8,2.8
			c3.6,3.2,4.4,8.7,4.4,16.6v5.7c0,7.9-0.9,13.3-4.4,16.6c-2,1.9-4.8,2.8-8.8,2.8C631.9,383.1,629.3,382.2,627.2,380.3z M640,365.5
			v-9.2c0-5.9,0-9.6-3.9-9.6s-3.9,3.6-3.9,9.6v9.2c0,5.9,0,9.6,3.9,9.6S640,371.4,640,365.5z"/>
		<path d="M658.7,380.3c-3.6-3.2-4.3-8.7-4.3-16.6V358c0-7.9,0.7-13.4,4.3-16.6c2.1-1.9,4.8-2.8,8.9-2.8c4,0,6.8,1,8.8,2.8
			c3.6,3.2,4.4,8.7,4.4,16.6v5.7c0,7.9-0.9,13.3-4.4,16.6c-2,1.9-4.8,2.8-8.8,2.8C663.5,383.1,660.9,382.2,658.7,380.3z
			 M671.5,365.5v-9.2c0-5.9,0-9.6-3.9-9.6s-3.9,3.6-3.9,9.6v9.2c0,5.9,0,9.6,3.9,9.6S671.5,371.4,671.5,365.5z"/>
		<path d="M696.7,324.4l-0.1,5.9v46.1l0.1,5.9h-9.5l0.1-5.9v-46.1l-0.1-5.9H696.7z"/>
	</g>
	<g>
		<g>
			<path d="M121.2,382.4V220.5c0-5.1-2-10-5.6-13.6l-42.4-42.4c-1,3.7-1.8,7.4-2.4,11.1l40.9,40.9v165.9H121.2z"/>
			<path d="M131.6,186.6c-3.6,3.6-5.6,8.5-5.6,13.6v5.6l35.3-35.3l-6.8-6.8L131.6,186.6z"/>
			<path d="M121.2,200.1c0-5.1-2-10-5.6-13.6l-37.5-37.5c-1.3,3.3-2.4,6.7-3.5,10.1l46.5,46.5V200.1z"/>
			<path d="M131.6,166.2c-3.6,3.6-5.6,8.5-5.6,13.6v5.6l25.1-25.1l-6.8-6.8L131.6,166.2z"/>
			<path d="M121.2,179.8c0-5.1-2-10-5.6-13.6l-31.2-31.2c-1.6,3-3,6.1-4.3,9.2l41.1,41.1V179.8z"/>
			<path d="M131.6,206.9c-3.6,3.6-5.6,8.5-5.6,13.6v161.9h9.6V216.5l35.9-35.9l-6.8-6.8L131.6,206.9z"/>
			<path d="M132.8,81c-2.7,1.8-5.3,3.7-7.9,5.6l78,78l6.8,6.8v-5.6c0-2.3-0.4-4.6-1.2-6.7c-1-2.5-2.4-4.9-4.4-6.8L132.8,81z
				 M195.2,143.3l6.8,6.8L195.2,143.3z"/>
			<path d="M110.5,99.3c-2.3,2.3-4.4,4.6-6.5,7l78.7,78.7l17.5,17.5v179.8h9.6V206.5c0-5.1-2-10-5.6-13.6l-14.7-14.7L110.5,99.3z"/>
			<path d="M220.1,172.6c-3.6,3.6-5.6,8.5-5.6,13.6v5.6l21.3-21.3l-6.8-6.8L220.1,172.6z"/>
			<path d="M310.3,96c-2.3-2.2-4.7-4.3-7.2-6.3l-40.1,40.1l6.8,6.8L310.3,96z"/>
			<path d="M121.1,89.7c-2.5,2-4.9,4.1-7.2,6.3l78.8,78.8l16.9,16.9v-5.6c0-5.1-2-10-5.6-13.6l-4.6-4.6L121.1,89.7z"/>
			<path d="M214.5,165.8v5.6l11.2-11.2l-6.7-6.7C216.1,157,214.5,161.3,214.5,165.8z"/>
			<path d="M299.3,86.7c-2.6-2-5.2-3.9-7.9-5.6l-38.6,38.6l6.8,6.8L299.3,86.7z"/>
			<path d="M320.3,106.3c-2.1-2.4-4.3-4.8-6.5-7l-40.6,40.6l6.8,6.8L320.3,106.3z"/>
			<path d="M220.1,192.9c-3.6,3.6-5.6,8.5-5.6,13.6v175.9h9.6V202.5v0l21.9-21.9l-6.8-6.8L220.1,192.9z"/>
			<path d="M185.9,59.6c-3.7,0.7-7.4,1.5-11.1,2.5l27,27l6.8-6.8L185.9,59.6z"/>
			<path d="M242.6,116.2l-6.8,6.8l55.6,55.6l6.8,6.8v-5.6c0-2.3-0.4-4.6-1.2-6.7c-1-2.5-2.4-4.9-4.4-6.8L242.6,116.2z"/>
			<path d="M154.8,69.1c-3.1,1.4-6.2,2.8-9.2,4.4l36,36l6.8-6.8L154.8,69.1z"/>
			<path d="M288.7,382.4h9.6V220.5c0-5.1-2-10-5.6-13.6l-14.7-14.7l-55.6-55.6l-6.8,6.8l55.6,55.6l17.5,17.5V382.4z"/>
			<path d="M303,200.1v5.6l46.5-46.5c-1-3.4-2.2-6.8-3.5-10.1l-37.5,37.5C305.1,190.2,303,195.1,303,200.1z"/>
			<path d="M169.6,63.6c-3.4,1.1-6.8,2.2-10,3.5l32.2,32.2l6.8-6.8L169.6,63.6z"/>
			<path d="M232.4,126.4l-6.8,6.8l55.6,55.6l16.9,16.9v-5.6c0-5.1-2-10-5.6-13.6l-4.6-4.6L232.4,126.4z"/>
			<path d="M308.7,166.2c-3.6,3.6-5.6,8.5-5.6,13.6v5.6l41.1-41.1c-1.3-3.1-2.8-6.2-4.3-9.2L308.7,166.2z"/>
			<path d="M351.1,164.5l-42.4,42.4c-3.6,3.6-5.6,8.5-5.6,13.6v161.9h9.6V216.5l40.9-40.9C352.8,171.9,352,168.2,351.1,164.5z"/>
			<path d="M198.5,139.9l6.8,6.8l73.3-73.3c-3-1.6-6.1-3-9.2-4.4L198.5,139.9z"/>
			<line x1="195.2" y1="143.3" x2="201.9" y2="150.1"/>
			<path d="M188.4,129.8l6.8,6.8l69.5-69.5c-3.3-1.3-6.6-2.5-10-3.5L188.4,129.8z"/>
			<path d="M178.2,119.6l6.8,6.8l64.3-64.3c-3.6-1-7.3-1.8-11.1-2.5L178.2,119.6z"/>
		</g>
	</g>
</g>
</svg>
