<?xml version="1.0" encoding="utf-8"?>
<!-- Generator: Adobe Illustrator 28.1.0, SVG Export Plug-In . SVG Version: 6.00 Build 0)  -->
<svg version="1.1" id="Layer_1" xmlns="http://www.w3.org/2000/svg" xmlns:xlink="http://www.w3.org/1999/xlink" x="0px" y="0px"
	 viewBox="0 0 686.9 538.6" style="enable-background:new 0 0 686.9 538.6;" xml:space="preserve">
<style type="text/css">
	.st0{fill:#FFFFFF;}
	.st1{fill:#004E42;}
</style>
<g>
	<g>
		<g>
			<path class="st0" d="M252.2,374.1V212.2c0-5.1-2-10-5.6-13.6l-42.4-42.4c-1,3.7-1.8,7.4-2.4,11.1l40.9,40.9v165.9H252.2z"/>
			<path class="st0" d="M262.6,178.3c-3.6,3.6-5.6,8.5-5.6,13.6v5.6l35.3-35.3l-6.8-6.8L262.6,178.3z"/>
			<path class="st0" d="M252.2,191.9c0-5.1-2-10-5.6-13.6l-37.5-37.5c-1.3,3.3-2.4,6.7-3.5,10.1l46.5,46.5V191.9z"/>
			<path class="st0" d="M262.6,158c-3.6,3.6-5.6,8.5-5.6,13.6v5.6l25.1-25.1l-6.8-6.8L262.6,158z"/>
			<path class="st0" d="M252.2,171.5c0-5.1-2-10-5.6-13.6l-31.2-31.2c-1.6,3-3,6.1-4.3,9.2l41.1,41.1V171.5z"/>
			<path class="st0" d="M262.6,198.7c-3.6,3.6-5.6,8.5-5.6,13.6v161.9h9.6V208.3l35.9-35.9l-6.8-6.8L262.6,198.7z"/>
			<path class="st0" d="M263.9,72.8c-2.7,1.8-5.3,3.7-7.9,5.6l78,78l6.8,6.8v-5.6c0-2.3-0.4-4.6-1.2-6.7c-1-2.5-2.4-4.9-4.4-6.8
				L263.9,72.8z M326.2,135.1l6.8,6.8L326.2,135.1z"/>
			<path class="st0" d="M241.5,91.1c-2.3,2.3-4.4,4.6-6.5,7l78.7,78.7l17.5,17.5v179.8h9.6V198.3c0-5.1-2-10-5.6-13.6L320.4,170
				L241.5,91.1z"/>
			<path class="st0" d="M351.2,164.4c-3.6,3.6-5.6,8.5-5.6,13.6v5.6l21.3-21.3l-6.8-6.8L351.2,164.4z"/>
			<path class="st0" d="M441.4,87.7c-2.3-2.2-4.7-4.3-7.2-6.3L394,121.5l6.8,6.8L441.4,87.7z"/>
			<path class="st0" d="M252.2,81.4c-2.5,2-4.9,4.1-7.2,6.3l78.8,78.8l16.9,16.9v-5.6c0-5.1-2-10-5.6-13.6l-4.6-4.6L252.2,81.4z"/>
			<path class="st0" d="M345.6,157.6v5.6l11.2-11.2l-6.7-6.7C347.1,148.7,345.6,153.1,345.6,157.6z"/>
			<path class="st0" d="M430.3,78.4c-2.6-2-5.2-3.9-7.9-5.6l-38.6,38.6l6.8,6.8L430.3,78.4z"/>
			<path class="st0" d="M451.3,98.1c-2.1-2.4-4.3-4.8-6.5-7l-40.6,40.6l6.8,6.8L451.3,98.1z"/>
			<path class="st0" d="M351.2,184.7c-3.6,3.6-5.6,8.5-5.6,13.6v175.9h9.6V194.3v0l21.9-21.9l-6.8-6.8L351.2,184.7z"/>
			<path class="st0" d="M317,51.3c-3.7,0.7-7.4,1.5-11.1,2.5l27,27l6.8-6.8L317,51.3z"/>
			<path class="st0" d="M373.7,108l-6.8,6.8l55.6,55.6l6.8,6.8v-5.6c0-2.3-0.4-4.6-1.2-6.7c-1-2.5-2.4-4.9-4.4-6.8L373.7,108z"/>
			<path class="st0" d="M285.9,60.8c-3.1,1.4-6.2,2.8-9.2,4.4l36,36l6.8-6.8L285.9,60.8z"/>
			<path class="st0" d="M419.7,374.1h9.6V212.2c0-5.1-2-10-5.6-13.6L409,183.9l-55.6-55.6l-6.8,6.8l55.6,55.6l17.5,17.5V374.1z"/>
			<path class="st0" d="M434.1,191.9v5.6l46.5-46.5c-1-3.4-2.2-6.8-3.5-10.1l-37.5,37.5C436.1,181.9,434.1,186.8,434.1,191.9z"/>
			<path class="st0" d="M300.7,55.3c-3.4,1.1-6.8,2.2-10,3.5L322.8,91l6.8-6.8L300.7,55.3z"/>
			<path class="st0" d="M363.5,118.1l-6.8,6.8l55.6,55.6l16.9,16.9v-5.6c0-5.1-2-10-5.6-13.6l-4.6-4.6L363.5,118.1z"/>
			<path class="st0" d="M439.7,158c-3.6,3.6-5.6,8.5-5.6,13.6v5.6l41.1-41.1c-1.3-3.1-2.8-6.2-4.3-9.2L439.7,158z"/>
			<path class="st0" d="M482.1,156.2l-42.4,42.4c-3.6,3.6-5.6,8.5-5.6,13.6v161.9h9.6V208.3l40.9-40.9
				C483.9,163.6,483.1,159.9,482.1,156.2z"/>
			<path class="st0" d="M329.6,131.7l6.8,6.8l73.3-73.3c-3-1.6-6.1-3-9.2-4.4L329.6,131.7z"/>
			<line class="st0" x1="326.2" y1="135.1" x2="333" y2="141.9"/>
			<path class="st0" d="M319.4,121.5l6.8,6.8l69.5-69.5c-3.3-1.3-6.6-2.5-10-3.5L319.4,121.5z"/>
			<path class="st0" d="M309.3,111.4l6.8,6.8l64.3-64.3c-3.6-1-7.3-1.8-11.1-2.5L309.3,111.4z"/>
		</g>
	</g>
	<path class="st0" d="M63.8,473.3l0.1-5.9v-46.1l-0.1-5.9h14c10.7,0,16,5.8,16,14.7v0.1c0,6.2-2.4,10.1-6.8,12.6v0.3
		c4.9,2.3,8.1,6.5,8.1,13v0.2c0,11.2-6.1,17.1-17.1,17.1H63.8z M74.2,438.6h2.7c4.6,0,6.6-3.2,6.6-7.5v-0.2c0-4.1-2.1-6.4-6.5-6.4
		h-2.8V438.6z M77.2,464.3c5.5,0,7.2-3,7.2-8.5v-0.2c0-5.1-2.2-7.9-7.4-7.9h-2.8v16.6H77.2z"/>
	<path class="st0" d="M109.9,461.8c0,2.3,0,3.8,2.2,3.8c1.9,0,3.6-1.2,5.3-2.3v-27l-0.1-5.9h9.5l-0.1,5.9v31.1l0.1,5.9h-8.9v-4.9
		h-0.1c-3.9,3.6-6.7,5.5-10.3,5.5c-4.4,0-6.9-3-6.9-8.3v-29.3l-0.1-5.9h9.5l-0.1,5.9V461.8z"/>
	<path class="st0" d="M153.7,429.9v10.3c-0.9-0.2-1.9-0.2-2.8-0.2c-4.6,0-7.2,1.9-7.2,6.7v20.7l0.1,5.9h-9.5l0.1-5.9v-31.3l-0.1-5.8
		h8.7v6.2h0.4c2.6-4.2,6.1-6.8,9-6.8C152.9,429.8,153.3,429.9,153.7,429.9z"/>
	<path class="st0" d="M174.1,441.9c0-2.3,0-3.8-2.2-3.8c-1.9,0-3.6,1.2-5.3,2.3v27l0.1,5.9h-9.5l0.1-5.9v-31.1l-0.1-5.9h8.9v4.9h0.1
		c3.9-3.6,6.7-5.5,10.3-5.5c4.4,0,6.9,3,6.9,8.3v29.3l0.1,5.9H174l0.1-5.9V441.9z"/>
	<path class="st0" d="M196.8,459.4c0.9,4.8,3.2,6.8,5.8,6.8c2.5,0,3.6-1.6,3.6-3.6c0-2.9-2.3-4.8-6-7l-4-2.3c-4.9-3-7.3-7-7.3-12.2
		c0-5.6,4.5-11.5,13-11.5c7.5,0,11.7,4,13.1,11l-8.6,1.8c-0.6-2.6-1.9-4.9-4.6-4.9c-2.3,0-3.8,1.4-3.8,3.3c0,2.3,1.5,3.6,4.9,5.8
		l4,2.3c4.9,2.9,8.6,7.3,8.6,13.1c0,7-4.7,12.1-13.3,12.1c-6.4,0-12.7-3.9-14.3-13L196.8,459.4z"/>
	<path class="st0" d="M230.2,430.4l-0.1,5.9v31.1l0.1,5.9h-9.5l0.1-5.9v-31.1l-0.1-5.9H230.2z M220.8,415.4h9.3v8.1h-9.3V415.4z"/>
	<path class="st0" d="M263.3,415.4l-0.1,5.9v46.1l0.1,5.9h-8.9v-3.5h-0.4c-3.7,2.9-5.9,4.1-8.9,4.1c-8.3,0-8.3-8.7-8.3-16.3v-10.4
		c0-7.3,0-17.6,8.7-17.6c2.9,0,5.1,1.1,8.4,3.7v-12.1l-0.1-5.9H263.3z M246,445.6v13.5c0,2.9,0.2,7,3.6,7c1.5,0,2.8-0.7,4.2-1.5
		v-25.9c-1.5-0.6-2.7-1-3.7-1C246,437.7,246,443,246,445.6z"/>
	<path class="st0" d="M278.9,453.7v2.8c0,6.2,0,9.6,4,9.6c4,0,4-4.5,4-7.5v-0.2h9.1v0.2c0,5.3-1.2,10-4.4,12.8
		c-1.9,1.8-4.7,2.8-8.9,2.8c-4.5,0-7-1.1-8.8-2.8c-3.6-3.2-4.3-8.7-4.3-16.7V449c0-7.9,0.7-13.4,4.3-16.6c2.1-1.9,4.9-2.8,8.9-2.8
		c4.2,0,6.8,1,8.8,2.8c3.6,3.2,4.4,8.6,4.4,16.6v4.7H278.9z M278.9,446.9h7.8v-0.2c0-5,0-8.9-4-8.9c-3.8,0-3.8,3.7-3.8,8.9V446.9z"
		/>
	<path class="st0" d="M345.4,415.4l-0.1,5.9v46.1l0.1,5.9H335l0.1-5.9v-19.7h-10v19.7l0.1,5.9h-10.4l0.1-5.9v-46.1l-0.1-5.9h10.4
		l-0.1,5.9v17.2h10v-17.2l-0.1-5.9H345.4z"/>
	<path class="st0" d="M362.6,430.4l-0.1,5.9v31.1l0.1,5.9h-9.5l0.1-5.9v-31.1l-0.1-5.9H362.6z M353.3,415.4h9.3v8.1h-9.3V415.4z"/>
	<path class="st0" d="M380.1,462.2c-1.1,0.8-2.1,1.9-2.1,2.8c0,1.1,1.5,1.5,3.6,1.5l6.7,0.3c7,0.3,11.9,3.2,11.9,9.2
		c0,7-7.2,11.3-18.2,11.3c-7.4,0-14.3-1.9-14.3-6.8c0-3.1,2.8-5.4,6.9-6.7v-0.3c-3.1-1.1-4.9-2.4-4.9-5.1s2-5.9,4.9-7.9v-0.3
		c-3.6-2.3-5.2-6.9-5.2-12.9v-2.4c0-5.6,1.5-9.6,4.3-12.2c2.2-2,4.9-2.9,8.3-2.9c5,0,8.1,1.9,9.9,4.5h0.4c1.9-4,5.4-4.8,7.5-4.1v9.7
		c-2.4-0.2-4.1-0.3-5.3,0.5c0.4,1.6,0.5,3.3,0.5,4.9v2.1c0,6.1-1.6,10-4,12.2c-2.3,2.2-5.5,2.9-8.7,2.9
		C381.6,462.3,380.8,462.3,380.1,462.2z M387.1,475l-6.7-0.3c-2.4,1.2-3.5,2.1-3.5,3.2c0,1.6,2.3,2.4,7,2.4c6,0,7.9-1.3,7.9-2.9
		C391.8,475.9,390.3,475.2,387.1,475z M378.4,447.7c0,3.3,0,6.8,4,6.8c3.8,0,3.8-3.5,3.8-6.8v-3.5c0-3.2,0-6.7-3.8-6.7
		c-4,0-4,3.5-4,6.8V447.7z"/>
	<path class="st0" d="M405,415.4h9.5l-0.1,5.9V435h0.1c3.5-3.2,6.2-5.3,9.8-5.3c4.5,0,6.9,3.1,6.9,8.3v29.3l0.1,5.9h-9.5l0.1-5.9
		v-25.5c0-2.4,0-3.8-2.2-3.8c-2,0-3.6,1.2-5.3,2.3v27l0.1,5.9H405l0.1-5.9v-46.1L405,415.4z"/>
	<path class="st0" d="M458,457.3c1,5.3,3.4,7.4,6.9,7.4c3.5,0,5.3-2,5.3-5c0-3.2-2.1-6.3-6.7-9.7l-5.3-3.9
		c-6.4-4.7-9.2-10.2-9.2-16.3c0-9,6.2-15.3,15.7-15.3c8.8,0,13.9,5.3,15.2,14.4l-10.1,1.4c-0.6-3.9-2.2-6.2-5.4-6.2
		c-3.1,0-4.9,2.2-4.9,5.2c0,3.6,2.6,6.2,6.8,9.3l5.3,3.8c6.1,4.5,9.2,10.1,9.2,16.7c0,9.3-6.2,15.2-16,15.2
		c-9.6,0-15.5-5.8-16.8-15.6L458,457.3z"/>
	<path class="st0" d="M511.2,456.7v0.2c0,6.4-1,11.6-4.2,14.5c-2,1.9-4.9,2.8-9,2.8c-4.5,0-7.1-1.2-8.8-2.8
		c-3.7-3.3-4.3-9.8-4.3-16.7V449c0-6.9,0.6-13.4,4.3-16.7c1.7-1.5,4.4-2.8,8.8-2.8c4,0,7,1,9,2.8c3.1,2.8,4,7.5,4,13.6v0.2H502v-0.2
		c0-4.5,0-8.3-4-8.3c-3.9,0-3.9,3.7-3.9,9.6v9.2c0,5.7,0,9.6,3.9,9.6c4,0,4-4.2,4-9.2v-0.2H511.2z"/>
	<path class="st0" d="M517,415.4h9.5l-0.1,5.9V435h0.1c3.5-3.2,6.2-5.3,9.8-5.3c4.5,0,6.9,3.1,6.9,8.3v29.3l0.1,5.9h-9.5l0.1-5.9
		v-25.5c0-2.4,0-3.8-2.2-3.8c-2,0-3.6,1.2-5.3,2.3v27l0.1,5.9H517l0.1-5.9v-46.1L517,415.4z"/>
	<path class="st0" d="M553.6,471.3c-3.6-3.2-4.3-8.7-4.3-16.6V449c0-7.9,0.7-13.4,4.3-16.6c2.1-1.9,4.8-2.8,8.9-2.8
		c4,0,6.8,1,8.8,2.8c3.6,3.2,4.4,8.7,4.4,16.6v5.7c0,7.9-0.9,13.3-4.4,16.6c-2,1.9-4.8,2.8-8.8,2.8
		C558.3,474.2,555.7,473.3,553.6,471.3z M566.4,456.5v-9.2c0-5.9,0-9.6-3.9-9.6s-3.9,3.6-3.9,9.6v9.2c0,5.9,0,9.6,3.9,9.6
		S566.4,462.4,566.4,456.5z"/>
	<path class="st0" d="M585.2,471.3c-3.6-3.2-4.3-8.7-4.3-16.6V449c0-7.9,0.7-13.4,4.3-16.6c2.1-1.9,4.8-2.8,8.9-2.8
		c4,0,6.8,1,8.8,2.8c3.6,3.2,4.4,8.7,4.4,16.6v5.7c0,7.9-0.9,13.3-4.4,16.6c-2,1.9-4.8,2.8-8.8,2.8
		C589.9,474.2,587.3,473.3,585.2,471.3z M597.9,456.5v-9.2c0-5.9,0-9.6-3.9-9.6s-3.9,3.6-3.9,9.6v9.2c0,5.9,0,9.6,3.9,9.6
		S597.9,462.4,597.9,456.5z"/>
	<path class="st0" d="M623.1,415.4l-0.1,5.9v46.1l0.1,5.9h-9.5l0.1-5.9v-46.1l-0.1-5.9H623.1z"/>
</g>
</svg>
